<svg id="visual" viewBox="0 0 900 600" width="900" height="600" xmlns="http://www.w3.org/2000/svg" xmlns:xlink="http://www.w3.org/1999/xlink" version="1.1"><path d="M430 0L436 14.3C442 28.7 454 57.3 464 85.8C474 114.3 482 142.7 506.8 171.2C531.7 199.7 573.3 228.3 570.7 257C568 285.7 521 314.3 493.7 343C466.3 371.7 458.7 400.3 433.7 428.8C408.7 457.3 366.3 485.7 339.8 514.2C313.3 542.7 302.7 571.3 297.3 585.7L292 600L0 600L0 585.7C0 571.3 0 542.7 0 514.2C0 485.7 0 457.3 0 428.8C0 400.3 0 371.7 0 343C0 314.3 0 285.7 0 257C0 228.3 0 199.7 0 171.2C0 142.7 0 114.3 0 85.8C0 57.3 0 28.7 0 14.3L0 0Z" fill="#D6CDA4" stroke-linecap="round" stroke-linejoin="miter"></path></svg>